<svg width="40" height="40" viewBox="0 0 40 40" fill="none" xmlns="http://www.w3.org/2000/svg">
<path d="M20.0002 37.5C17.8002 37.5 4.4502 29.45 4.4502 14.9V7.75C4.4502 6.4 5.5002 5.25 6.9002 5.15C15.3502 4.45 17.8502 2.5 20.0002 2.5C22.1502 2.5 24.6502 4.45 33.1002 5.15C34.4002 5.25 35.5502 6.4 35.5502 7.75V14.9C35.5502 29.45 22.2002 37.5 20.0002 37.5Z" fill="#0500FF"/>
<path d="M19.9998 35C18.1498 35 6.9498 28.05 6.9498 15.65V9.45C6.9498 8.3 7.8498 7.3 8.9998 7.25C16.2498 6.65 18.3998 5 19.9998 5C21.5998 5 23.7498 6.65 30.9998 7.25C32.1498 7.3 33.0498 8.3 33.0498 9.45V15.65C33.0498 28.05 21.8498 35 19.9998 35Z" fill="white"/>
<path d="M25.6002 18.85L18.6502 25.8C18.4502 26 18.2002 26.1 17.9002 26.1C17.6002 26.1 17.3502 26 17.1502 25.8L14.4002 23.05C13.9502 22.6 13.9502 21.9 14.4002 21.45C14.8502 21 15.5502 21 16.0002 21.45L17.9002 23.35L24.0002 17.25C24.4502 16.8 25.1502 16.8 25.6002 17.25C26.0502 17.7 26.0502 18.4 25.6002 18.85Z" fill="#0500FF"/>
</svg>

