<svg width="300" height="185" viewBox="0 0 300 185" fill="none" xmlns="http://www.w3.org/2000/svg">
<path d="M61.4385 36.2862C116.663 -12.0955 206.337 -12.0955 261.562 36.2862L268.379 42.176C270.502 44.0186 270.502 47.2794 268.379 49.122L246.699 67.9548C245.637 68.8761 243.982 68.8761 242.92 67.9548L233.657 60.0484C193.933 26.3547 129.067 26.3547 89.3425 60.0484L79.4791 68.4155C78.4174 69.3368 76.7628 69.3368 75.701 68.4155L54.0211 49.5827C51.8982 47.7401 51.8982 44.4793 54.0211 42.6367L61.4385 36.2862ZM280.088 58.2058L299.645 74.9154C301.768 76.758 301.768 80.0188 299.645 81.8614L220.163 150.274C217.979 152.117 214.546 152.117 212.362 150.274C212.362 150.274 212.362 150.274 212.362 150.274L155.053 101.507C154.522 101.046 153.659 101.046 153.128 101.507C153.128 101.507 153.128 101.507 153.128 101.507L95.8193 150.274C93.6352 152.117 90.2027 152.117 88.0186 150.274C88.0186 150.274 88.0186 150.274 88.0186 150.274L8.35504 81.8614C6.23213 80.0188 6.23213 76.758 8.35504 74.9154L27.9123 58.2058C30.0964 56.3632 33.5289 56.3632 35.713 58.2058L93.0216 107.012C93.5526 107.473 94.4161 107.473 94.9471 107.012C94.9471 107.012 94.9471 107.012 94.9471 107.012L152.256 58.2058C154.44 56.3632 157.873 56.3632 160.057 58.2058C160.057 58.2058 160.057 58.2058 160.057 58.2058L217.366 107.012C217.897 107.473 218.76 107.473 219.291 107.012L276.599 58.2058C278.783 56.3632 282.216 56.3632 284.4 58.2058L280.088 58.2058Z" fill="#3B99FC"/>
</svg>

